PathFileType	4	(X/Y/Z)	/Users/itak/Documents/Research/Walk-IL/dataset/trc/00354_00011.trc
DataRate	CameraRate	NumFrames	NumMarkers	Units	OrigDataRate	OrigDataStartFrame	OrigNumFrames
100.000000	100.000000	4	54	mm	100.000000	433	867
Frame#	Time	RPSI			LPSI			L3			STRN			T10			C7			CLAV			RBAK			LBAK			LSHO			LUPA			LAEL			LAOL			LWTS			LWPS			LFRA			LIFD			LHPS			LHTS			RSHO			RUPA			RAEL			RAOL			RWTS			RWPS			RFRA			RIFD			RHTS			RHPS			RBHD			LFHD			RFHD			LBHD			RHIP			RASI			LASI			LKNE			LTHI			LANK			LTIP			LTOE			LMT1			LMT5			LHEE			RKNE			RANK			RTIP			RTOE			RMT1			RMT5			RHEE			LHIP			RTHI			*53			
		X1	Y1	Z1	X2	Y2	Z2	X3	Y3	Z3	X4	Y4	Z4	X5	Y5	Z5	X6	Y6	Z6	X7	Y7	Z7	X8	Y8	Z8	X9	Y9	Z9	X10	Y10	Z10	X11	Y11	Z11	X12	Y12	Z12	X13	Y13	Z13	X14	Y14	Z14	X15	Y15	Z15	X16	Y16	Z16	X17	Y17	Z17	X18	Y18	Z18	X19	Y19	Z19	X20	Y20	Z20	X21	Y21	Z21	X22	Y22	Z22	X23	Y23	Z23	X24	Y24	Z24	X25	Y25	Z25	X26	Y26	Z26	X27	Y27	Z27	X28	Y28	Z28	X29	Y29	Z29	X30	Y30	Z30	X31	Y31	Z31	X32	Y32	Z32	X33	Y33	Z33	X34	Y34	Z34	X35	Y35	Z35	X36	Y36	Z36	X37	Y37	Z37	X38	Y38	Z38	X39	Y39	Z39	X40	Y40	Z40	X41	Y41	Z41	X42	Y42	Z42	X43	Y43	Z43	X44	Y44	Z44	X45	Y45	Z45	X46	Y46	Z46	X47	Y47	Z47	X48	Y48	Z48	X49	Y49	Z49	X50	Y50	Z50	X51	Y51	Z51	X52	Y52	Z52	X53	Y53	Z53	X54	Y54	Z54	

434	4.33	102.2156982421875	939.0160522460938	-485.2768859863281	121.328239440918	948.5558471679688	-614.6395874023438	107.5161972045898	1012.250061035156	-547.4959716796875	342.1747741699219	1188.669921875	-503.1251525878906	106.7717590332031	1130.81201171875	-556.5294189453125	156.2372131347656	1377.767333984375	-556.6815185546875	304.0884094238281	1316.091186523438	-511.258056640625	88.16580963134766	1238.90625	-508.8237609863281	168.9481353759766	1344.505126953125	-658.0828247070312	266.7975463867188	1357.384033203125	-688.7174682617188	263.0441284179688	1243.252075195312	-764.7739868164062	290.6611938476562	1045.92041015625	-806.0413818359375	217.9674835205078	1021.931335449219	-764.3782958984375	421.018798828125	831.2939453125	-756.1571655273438	404.6300354003906	818.2216796875	-821.83349609375	324.061279296875	949.228515625	-819.8499145507812	461.0022888183594	677.1254272460938	-749.0812377929688	417.8392944335938	747.44775390625	-818.0050659179688	455.4530639648438	759.0144653320312	-767.2989501953125	164.1884765625	1361.01171875	-386.4627990722656	126.6207275390625	1296.642333984375	-334.4229736328125	83.90068817138672	1031.164428710938	-334.2196044921875	86.10724639892578	1032.390014648438	-428.7689819335938	204.4699096679688	809.8458862304688	-331.5726318359375	142.9617767333984	788.4437866210938	-292.5662841796875	98.43785858154297	962.0256958007812	-319.1642150878906	218.2727355957031	637.436279296875	-341.3795471191406	227.3473663330078	707.2347412109375	-316.2077026367188	160.5060882568359	703.4283447265625	-297.6316223144531	183.1494445800781	1579.549682617188	-468.8319091796875	391.6221618652344	1569.671997070312	-466.4192504882812	325.6157531738281	1567.133178710938	-389.6318054199219	255.3866271972656	1582.417724609375	-593.4854125976562	169.4353179931641	879.7318725585938	-370.978271484375	277.653076171875	912.8088989257812	-399.5108032226562	333.7612915039062	923.870361328125	-631.4575805664062	345.8283386230469	461.7182312011719	-744.8306884765625	332.0262451171875	591.0393676757812	-737.419189453125	-21.22575950622559	232.3340759277344	-805.6853637695312	168.4866485595703	327.3193359375	-789.3848266601562	48.26393890380859	41.75997543334961	-737.6808471679688	15.9232873916626	104.0349960327148	-698.4190673828125	15.32529830932617	110.7750778198242	-814.8081665039062	-42.36669921875	260.2659912109375	-738.6815795898438	311.6854858398438	428.8008728027344	-469.2626342773438	277.6018371582031	44.89290237426758	-603.5403442382812	334.6722106933594	312.2698974609375	-506.1258239746094	476.1547241210938	39.04571151733398	-580.3134765625	439.7309875488281	32.89175415039062	-639.4920654296875	364.7390441894531	34.48529052734375	-549.305908203125	248.5172424316406	46.1762809753418	-665.6136474609375	221.9180145263672	901.7827758789062	-708.9984741210938	277.7164306640625	676.8773803710938	-382.5848388671875	nan	nan	nan	
435	4.34	108.5507583618164	940.3396606445312	-485.7198486328125	130.4738922119141	950.0386962890625	-614.5774536132812	114.87939453125	1013.17236328125	-547.4302368164062	349.152099609375	1189.85546875	-499.3919982910156	114.4314346313477	1132.00146484375	-556.1295776367188	164.13330078125	1378.951904296875	-555.4171752929688	310.977294921875	1317.038696289062	-507.9974365234375	95.20532989501953	1240.180786132812	-508.2389526367188	178.2337951660156	1345.626953125	-656.5575561523438	276.466064453125	1358.435668945312	-686.0441284179688	273.5000305175781	1243.958618164062	-761.5966796875	300.0236206054688	1046.111938476562	-800.0558471679688	226.335693359375	1023.282409667969	-759.660888671875	422.2654418945312	825.6972045898438	-750.1273803710938	405.7704467773438	813.6065673828125	-815.9832763671875	330.510009765625	947.7222290039062	-814.0164794921875	455.674560546875	670.0053100585938	-743.6610107421875	415.7799072265625	742.3314208984375	-812.33154296875	453.6905517578125	752.076904296875	-761.41357421875	170.0811614990234	1362.31640625	-385.0087890625	132.1628112792969	1297.728637695312	-333.1282958984375	92.74010467529297	1031.660888671875	-331.8256530761719	93.36598205566406	1032.585693359375	-426.3278198242188	222.1374053955078	816.4672241210938	-328.9986267089844	162.6420593261719	792.7020263671875	-288.3512878417969	109.7612075805664	963.6763305664062	-316.4284362792969	245.5813598632812	645.1854858398438	-334.9631958007812	250.9328308105469	715.7680053710938	-311.7669982910156	184.7517700195312	708.7866821289062	-291.8967895507812	190.3737182617188	1580.686889648438	-466.7943725585938	398.7319946289062	1570.447875976562	-462.0227661132812	331.7295227050781	1567.930419921875	-386.0137634277344	263.9867248535156	1583.566528320312	-590.6224975585938	172.7525787353516	880.38720703125	-370.3876037597656	281.9555053710938	913.5571899414062	-396.0317687988281	343.1746520996094	925.5906982421875	-626.509765625	367.44677734375	464.701904296875	-738.47216796875	350.2951965332031	593.852294921875	-731.8927612304688	3.901578187942505	230.5885162353516	-809.628662109375	192.9157409667969	328.3879089355469	-787.9583740234375	79.43656158447266	43.25336074829102	-740.8722534179688	43.47042083740234	103.6102142333984	-702.08154296875	45.47321701049805	110.8503265380859	-818.3648071289062	-19.77473068237305	257.5835571289062	-743.0755615234375	313.1306457519531	428.4917297363281	-467.7312927246094	277.52001953125	44.82192611694336	-603.3529663085938	335.5154418945312	312.0708618164062	-505.152099609375	476.1726989746094	39.07236862182617	-580.2706909179688	439.6603088378906	32.96743392944336	-639.375732421875	364.6595153808594	34.3829231262207	-549.1293334960938	248.4819183349609	46.42230224609375	-665.4990234375	232.0239562988281	903.6815185546875	-706.9647827148438	280.2713012695312	676.828369140625	-381.1169128417969	nan	nan	nan	
436	4.350000000000001	114.8223037719727	941.618896484375	-486.2537536621094	139.6533508300781	951.54736328125	-614.52392578125	122.3822631835938	1014.064880371094	-547.4257202148438	355.9659729003906	1191.083374023438	-495.4797058105469	121.9713287353516	1133.19677734375	-555.7611694335938	171.9620513916016	1380.121459960938	-554.1416015625	317.7164611816406	1318.031616210938	-504.6158447265625	102.1709823608398	1241.447387695312	-507.6750793457031	187.5150299072266	1346.721557617188	-654.979248046875	286.1217956542969	1359.498779296875	-683.2561645507812	283.9983215332031	1244.69140625	-758.3258056640625	309.2557067871094	1046.391967773438	-794.0486450195312	234.6439056396484	1024.7001953125	-754.9225463867188	423.3206481933594	820.493896484375	-744.2597045898438	406.7798461914062	809.4797973632812	-810.3150024414062	336.8854370117188	946.513916015625	-808.1682739257812	450.1079406738281	663.4403076171875	-738.6025390625	413.5808715820312	737.8493041992188	-806.9907836914062	451.654052734375	745.6774291992188	-755.8094482421875	175.8186187744141	1363.658935546875	-383.5543823242188	137.4864349365234	1298.882568359375	-331.8652648925781	101.2713775634766	1032.33544921875	-329.2481079101562	100.3690185546875	1032.818359375	-423.6744079589844	239.1387023925781	823.610595703125	-326.2918701171875	181.8007507324219	797.75927734375	-283.8466796875	120.7902069091797	965.753662109375	-313.4681396484375	272.0774230957031	654.0328369140625	-328.2298889160156	273.6993713378906	725.2119750976562	-307.1203002929688	208.4583740234375	715.2254028320312	-285.7434997558594	197.5293273925781	1581.844360351562	-464.7014465332031	405.7021179199219	1571.16845703125	-457.5162353515625	337.7545166015625	1568.69189453125	-382.3013305664062	272.5184631347656	1584.732177734375	-587.673095703125	175.9730682373047	880.9699096679688	-369.8555908203125	285.9710693359375	914.2610473632812	-392.5299072265625	352.4921569824219	927.3199462890625	-621.3848266601562	388.3817138671875	467.9146728515625	-731.4583129882812	368.0446472167969	596.8272705078125	-725.9052124023438	29.57195854187012	227.9288024902344	-813.0874633789062	217.2394104003906	329.2255249023438	-785.9364013671875	111.9356994628906	44.27181625366211	-743.8547973632812	72.16851806640625	102.2528610229492	-705.4154052734375	76.63450622558594	110.4814834594727	-821.4320068359375	3.372409343719482	253.6517791748047	-746.9850463867188	314.4742126464844	428.1918334960938	-466.2090148925781	277.44091796875	44.77922439575195	-603.1414184570312	336.3161926269531	311.9260559082031	-504.2527465820312	476.1912231445312	39.11094284057617	-580.2347412109375	439.5890197753906	33.02577209472656	-639.2534790039062	364.5870056152344	34.28517532348633	-548.9572143554688	248.4980010986328	46.75642395019531	-665.3731079101562	242.1947784423828	905.6726684570312	-704.8125	282.5852661132812	676.8023071289062	-379.7726440429688	nan	nan	nan	
437	4.36	121.0578460693359	942.8156127929688	-486.8757019042969	148.8479614257812	953.019287109375	-614.48095703125	130.0442962646484	1014.953125	-547.465576171875	362.6301574707031	1192.324829101562	-491.3775939941406	129.4214019775391	1134.37646484375	-555.403564453125	179.7437744140625	1381.261474609375	-552.8463134765625	324.3614807128906	1319.070434570312	-501.1295471191406	109.0713348388672	1242.687866210938	-507.1326293945312	196.8030395507812	1347.772094726562	-653.345458984375	295.7798767089844	1360.547241210938	-680.3468017578125	294.5255737304688	1245.419311523438	-754.951904296875	318.2931518554688	1046.71337890625	-788.0985107421875	242.8429412841797	1026.155029296875	-750.1856689453125	424.2115478515625	815.6904907226562	-738.537109375	407.7246398925781	805.8472290039062	-804.8147583007812	343.1878662109375	945.5833740234375	-802.3200073242188	444.5047912597656	657.4652709960938	-733.8312377929688	411.3368835449219	734.0018920898438	-801.94873046875	449.4025268554688	739.8192749023438	-750.4423828125	181.3968963623047	1365.017700195312	-382.1054382324219	142.5926361083984	1300.090698242188	-330.6399536132812	109.4903106689453	1033.176391601562	-326.4893493652344	107.1432647705078	1033.07666015625	-420.8084411621094	255.4319610595703	831.2061767578125	-323.4236145019531	200.3350830078125	803.53076171875	-279.093505859375	131.4461975097656	968.1934204101562	-310.2991027832031	297.6351928710938	663.8895874023438	-321.2772216796875	295.5406799316406	735.448974609375	-302.2664489746094	231.4776000976562	722.6475830078125	-279.267578125	204.6037445068359	1583.005249023438	-462.5528869628906	412.5335083007812	1571.836303710938	-452.8987426757812	343.6875	1569.416748046875	-378.4956665039062	280.9796142578125	1585.899536132812	-584.633056640625	179.1813354492188	881.4669189453125	-369.3608093261719	289.7375183105469	914.8897705078125	-389.0213317871094	361.6957092285156	929.0111083984375	-616.1044311523438	408.5457153320312	471.2866821289062	-723.8436889648438	385.1961975097656	599.919189453125	-719.4932250976562	55.82191848754883	224.3739471435547	-816.0624389648438	241.4018402099609	329.8060607910156	-783.32763671875	145.6032257080078	44.90976715087891	-746.3628540039062	101.8843002319336	100.0668411254883	-708.2590942382812	108.7667388916016	109.7389907836914	-823.853515625	27.06039619445801	248.5154113769531	-750.4581909179688	315.6619873046875	427.9047241210938	-464.7423095703125	277.3687744140625	44.76027679443359	-602.9314575195312	337.0217895507812	311.8033447265625	-503.3973388671875	476.2101745605469	39.15076065063477	-580.2034301757812	439.5225219726562	33.07088088989258	-639.130615234375	364.5203857421875	34.19463729858398	-548.7940063476562	248.53076171875	47.11702728271484	-665.22900390625	252.6443939208984	907.6746826171875	-702.4923095703125	284.6597595214844	676.7703857421875	-378.5484924316406	nan	nan	nan	
